<?xml version="1.0" encoding="iso-8859-1"?>
<!-- Generator: Adobe Illustrator 16.0.0, SVG Export Plug-In . SVG Version: 6.00 Build 0)  -->
<!DOCTYPE svg PUBLIC "-//W3C//DTD SVG 1.1//EN" "http://www.w3.org/Graphics/SVG/1.1/DTD/svg11.dtd">
<svg version="1.1" id="Capa_1" xmlns="http://www.w3.org/2000/svg" xmlns:xlink="http://www.w3.org/1999/xlink" x="0px" y="0px"
	 width="533.333px" height="533.333px" viewBox="0 0 533.333 533.333" style="enable-background:new 0 0 533.333 533.333;"
	 xml:space="preserve">
<g>
	<path d="M266.667,0C119.391,0,0,37.309,0,83.333v50l200,200V500c0,18.409,29.847,33.333,66.667,33.333
		c36.818,0,66.667-14.924,66.667-33.333V333.333l200-200v-50C533.333,37.309,413.942,0,266.667,0z M49.158,72.304
		c12.471-7.114,29.991-13.865,50.666-19.525c45.805-12.54,105.056-19.446,166.843-19.446c61.786,0,121.039,6.906,166.843,19.446
		c20.675,5.66,38.194,12.411,50.666,19.525c8.226,4.69,12.669,8.659,14.738,11.029c-2.069,2.371-6.514,6.337-14.738,11.029
		c-12.472,7.114-29.991,13.865-50.666,19.525c-45.803,12.54-105.056,19.446-166.843,19.446c-61.787,0-121.038-6.906-166.843-19.446
		c-20.675-5.661-38.195-12.412-50.666-19.525c-8.225-4.691-12.669-8.658-14.739-11.029C36.489,80.963,40.933,76.996,49.158,72.304z"
		/>
</g>
<g>
</g>
<g>
</g>
<g>
</g>
<g>
</g>
<g>
</g>
<g>
</g>
<g>
</g>
<g>
</g>
<g>
</g>
<g>
</g>
<g>
</g>
<g>
</g>
<g>
</g>
<g>
</g>
<g>
</g>
</svg>
