<?xml version="1.0" encoding="iso-8859-1"?>
<!-- Generator: Adobe Illustrator 19.0.0, SVG Export Plug-In . SVG Version: 6.00 Build 0)  -->
<svg version="1.1" id="Layer_1" xmlns="http://www.w3.org/2000/svg" xmlns:xlink="http://www.w3.org/1999/xlink" x="0px" y="0px"
	 viewBox="0 0 457.647 457.647" style="enable-background:new 0 0 457.647 457.647;" xml:space="preserve">
<g>
	<g>
		<g>
			<path d="M162.346,121.837c0,24.949,9.76,53.752,26.106,77.048c18.524,26.398,41.921,40.936,65.882,40.936
				c23.96,0,47.357-14.538,65.881-40.936c16.347-23.296,26.106-52.099,26.106-77.048c0-50.722-41.266-91.988-91.987-91.988
				C203.611,29.848,162.346,71.114,162.346,121.837z M254.334,44.848c42.451,0,76.987,34.537,76.987,76.988
				c0,21.655-8.961,47.876-23.385,68.432c-15.408,21.958-34.946,34.552-53.603,34.552c-18.657,0-38.194-12.594-53.604-34.552
				c-14.424-20.556-23.385-46.777-23.385-68.432C177.346,79.386,211.883,44.848,254.334,44.848z"/>
			<path d="M291.897,419.191c-4.591-4.729-12.783-1.159-12.8,5.3c-0.016,6.064,7.132,9.604,11.978,6.016
				c2.732-2.024,3.739-5.752,2.442-8.886C293.156,420.717,292.597,419.87,291.897,419.191z"/>
			<path d="M293.517,421.621C293.707,422.082,293.337,421.171,293.517,421.621L293.517,421.621z"/>
			<path d="M83.885,338.504c-25.172-7.743-48.904-21.005-68.844-38.444c0.582-22.87,7.375-44.992,19.734-64.173
				c11.679-18.125,27.769-32.861,46.742-42.868c17.41,15.818,37.388,24.147,58.072,24.147c12.229,0,24.253-2.914,35.738-8.662
				c3.704-1.854,5.204-6.359,3.351-10.063c-1.853-3.704-6.36-5.204-10.063-3.351c-9.382,4.695-19.147,7.076-29.025,7.076
				c-18.209,0-35.99-8.134-51.424-23.524c-2.247-2.24-5.657-2.824-8.52-1.461c-23.485,11.18-43.362,28.671-57.479,50.582
				C7.665,250.269,0,276.38,0,303.275v0.112c0,2.116,0.895,4.134,2.462,5.556c22.061,20.007,48.691,35.187,77.013,43.898
				c0.734,0.226,1.478,0.333,2.208,0.333c3.206,0,6.174-2.072,7.166-5.297C90.066,343.918,87.844,339.723,83.885,338.504z"/>
			<path d="M139.257,191.144c8.411,0,16.807-2.053,24.952-6.101c3.709-1.844,5.222-6.345,3.378-10.054s-6.344-5.222-10.054-3.378
				c-6.053,3.008-12.202,4.534-18.276,4.534c-15.752,0-32.296-10.703-45.39-29.364c-12.324-17.566-19.98-39.957-19.98-58.436
				c0-36.045,29.325-65.37,65.37-65.37c17.013,0,33.124,6.504,45.367,18.315c2.981,2.877,7.729,2.791,10.604-0.19
				c2.876-2.981,2.791-7.729-0.19-10.604c-15.053-14.522-34.863-22.52-55.781-22.52c-44.316,0-80.37,36.054-80.37,80.37
				c0,21.726,8.486,46.792,22.702,67.051C97.763,178.447,118.243,191.144,139.257,191.144z"/>
			<path d="M383.438,272.739c-15.684-21.297-36.459-38.5-60.295-49.848c-2.862-1.363-6.275-0.777-8.521,1.463
				c-18.061,18.022-38.905,27.549-60.282,27.549c-21.374,0-42.224-9.526-60.293-27.55c-2.247-2.24-5.656-2.825-8.521-1.461
				c-26.961,12.837-49.779,32.918-65.987,58.073c-16.649,25.837-25.449,55.813-25.449,86.688v0.13c0,2.116,0.895,4.134,2.462,5.556
				c43.272,39.243,99.31,60.854,157.788,60.854c3.648,0,7.336-0.084,10.959-0.251c4.138-0.191,7.337-3.7,7.146-7.837
				c-0.191-4.137-3.668-7.327-7.838-7.147c-3.394,0.157-6.848,0.236-10.268,0.236c-53.626,0-105.062-19.415-145.215-54.736
				c0.582-26.857,8.513-52.849,23.021-75.368c13.766-21.362,32.786-38.689,55.224-50.362c20.055,18.455,43.107,28.176,66.97,28.176
				c23.864,0,46.915-9.721,66.96-28.174c15.896,8.275,30.154,19.477,42.011,32.919c-46.692,2.725-83.845,41.568-83.845,88.932
				c0,49.125,39.966,89.09,89.091,89.09s89.091-39.966,89.091-89.09C457.647,316.527,425.503,279.843,383.438,272.739z
				 M368.557,434.671c-40.854,0-74.091-33.237-74.091-74.09c0-40.854,33.237-74.091,74.091-74.091s74.091,33.237,74.091,74.091
				C442.647,401.434,409.41,434.671,368.557,434.671z"/>
			<path d="M424.968,353.082h-48.911V304.17c0-4.142-3.357-7.5-7.5-7.5s-7.5,3.358-7.5,7.5v48.912h-48.911
				c-4.143,0-7.5,3.358-7.5,7.5c0,4.142,3.357,7.5,7.5,7.5h48.911v48.911c0,4.142,3.357,7.5,7.5,7.5s7.5-3.358,7.5-7.5v-48.911
				h48.911c4.143,0,7.5-3.358,7.5-7.5C432.468,356.439,429.11,353.082,424.968,353.082z"/>
		</g>
	</g>
</g>
<g>
</g>
<g>
</g>
<g>
</g>
<g>
</g>
<g>
</g>
<g>
</g>
<g>
</g>
<g>
</g>
<g>
</g>
<g>
</g>
<g>
</g>
<g>
</g>
<g>
</g>
<g>
</g>
<g>
</g>
</svg>
