<?xml version="1.0" encoding="iso-8859-1"?>
<!-- Generator: Adobe Illustrator 19.0.0, SVG Export Plug-In . SVG Version: 6.00 Build 0)  -->
<svg version="1.1" id="Layer_1" xmlns="http://www.w3.org/2000/svg" xmlns:xlink="http://www.w3.org/1999/xlink" x="0px" y="0px"
	 viewBox="0 0 512.001 512.001" style="enable-background:new 0 0 512.001 512.001;" xml:space="preserve">
<path style="fill:#F95428;" d="M306.297,301.13c8.183,19.09,30.295,27.934,49.384,19.751c19.09-8.17,27.934-30.282,19.764-49.371
	L306.297,301.13z M287.713,367.166c-9.324,0.571-20.153,1.932-31.708,1.932h-0.013c-11.542,0-22.371-1.362-31.708-1.932
	c-19.038-1.193-31.838,0.895-31.838,24.446c0,29.491,20.101,54.299,47.348,61.458c5.174,1.362,10.595,2.088,16.198,2.088
	c5.602,0,11.036-0.726,16.224-2.088c27.247-7.172,47.322-31.968,47.322-61.458C319.538,368.061,306.738,365.973,287.713,367.166z
	 M205.7,301.13l-69.149-29.62c-8.183,19.09,0.674,41.201,19.764,49.371C175.405,329.064,197.517,320.22,205.7,301.13z
	 M428.772,284.323v43.925c0,2.788-0.065,5.564-0.195,8.326c-2.646,55.804-31.773,104.67-75.075,134.329
	c-0.376,0.272-0.765,0.519-1.141,0.778c-27.519,18.519-60.667,29.335-96.357,29.335s-68.837-10.816-96.37-29.335
	c-0.363-0.259-0.752-0.506-1.128-0.778c-43.315-29.659-72.443-78.525-75.088-134.329c-0.13-2.762-0.195-5.538-0.195-8.326v-43.925
	v-52.212v-48.334c0-8.118,0.558-16.107,1.647-23.927c9.298,7.146,19.738,13.708,31.462,19.401
	c28.751,13.954,62.197-7.172,62.197-39.126v-0.506c0-20.218-14.019-37.531-33.679-42.278c-11.412-2.762-22.124-6.225-32.123-10.167
	c31.06-45.961,83.634-76.178,143.277-76.178c47.711,0,90.91,19.336,122.164,50.603c7.82,7.82,14.888,16.379,21.1,25.574v0.013
	c-9.999,3.942-20.711,7.392-32.123,10.154c-19.66,4.747-33.679,22.06-33.679,42.278v0.506c0,31.955,33.446,53.08,62.197,39.126
	c11.737-5.693,22.176-12.255,31.462-19.401c1.089,7.82,1.647,15.809,1.647,23.927v48.334L428.772,284.323L428.772,284.323z"/>
<path style="fill:#E54728;" d="M212.791,471.68c-0.363-0.259-0.752-0.519-1.128-0.791c-43.302-29.646-72.443-78.525-75.088-134.316
	c-0.13-2.762-0.195-5.538-0.195-8.326V284.31v-52.199v-21.256v-27.078c0-48.088,19.647-91.597,51.356-122.916
	c25.236-24.931,58.116-42.147,94.809-47.82c-8.659-1.344-17.517-2.044-26.539-2.044c-47.335,0-90.223,19.038-121.425,49.864
	c-31.708,31.319-51.356,74.829-51.356,122.916v27.078v21.256v52.199v43.938c0,2.788,0.065,5.564,0.195,8.326
	c2.646,55.791,31.786,104.669,75.088,134.316c0.376,0.272,0.765,0.532,1.128,0.791c27.532,18.519,60.68,29.335,96.37,29.335
	c9.039,0,17.914-0.7,26.578-2.037C257.041,495.035,233.349,485.508,212.791,471.68z"/>
<g>
	<path style="fill:#FCD69A;" d="M178.531,139.619v0.506c0,7.963-2.075,15.251-5.641,21.489
		c-10.738,18.817-34.963,28.116-56.556,17.637c-11.724-5.693-22.163-12.255-31.462-19.401C12.208,103.981,9.731,12.125,9.731,12.125
		s0,0.013,0.026,0.039c1.089,1.465,36.39,48.814,102.971,75.01c9.999,3.942,20.711,7.405,32.123,10.167
		C164.511,102.088,178.531,119.401,178.531,139.619z"/>
	<path style="fill:#FCD69A;" d="M502.279,12.125c0,0-2.49,91.857-75.153,147.725c-9.286,7.146-19.725,13.708-31.462,19.401
		c-28.751,13.954-62.197-7.172-62.197-39.126v-0.506c0-20.218,14.019-37.531,33.679-42.278c11.412-2.762,22.124-6.212,32.123-10.154
		v-0.013C466.926,60.562,502.279,12.125,502.279,12.125z"/>
</g>
<g>
	<path style="fill:#D3A562;" d="M172.889,161.614c-10.738,18.817-34.963,28.116-56.556,17.637
		c-11.724-5.693-22.163-12.255-31.462-19.401C12.208,103.981,9.731,12.125,9.731,12.125s0,0.013,0.026,0.039
		C10.743,14.563,57.313,125.626,172.889,161.614z"/>
	<path style="fill:#D3A562;" d="M339.121,161.614c10.738,18.817,34.963,28.116,56.556,17.637
		c11.724-5.693,22.163-12.255,31.462-19.401c72.663-55.869,75.14-147.725,75.14-147.725s0,0.013-0.026,0.039
		C501.267,14.563,454.697,125.626,339.121,161.614z"/>
</g>
<g>
	<path style="fill:#F2F2F2;" d="M375.446,271.51c8.17,19.09-0.674,41.201-19.764,49.371c-19.09,8.183-41.201-0.661-49.384-19.751
		L375.446,271.51z"/>
	<path style="fill:#F2F2F2;" d="M136.551,271.51l69.149,29.62c-8.183,19.09-30.295,27.934-49.384,19.751
		C137.226,312.711,128.368,290.599,136.551,271.51z"/>
</g>
<path style="fill:#666666;" d="M287.713,367.166c19.025-1.193,31.825,0.895,31.825,24.446c0,29.491-20.075,54.286-47.322,61.458
	c-5.187,1.362-10.621,2.088-16.224,2.088c-5.602,0-11.023-0.726-16.198-2.088c-27.247-7.159-47.348-31.968-47.348-61.458
	c0-23.551,12.8-25.639,31.838-24.446c9.337,0.571,20.166,1.932,31.708,1.932h0.013C267.56,369.098,278.389,367.736,287.713,367.166z
	"/>
<g>
	<path style="fill:#E54728;" d="M83.224,328.247c0,2.788,0.065,5.564,0.195,8.326c-22.63-6.601-39.165-27.506-39.165-52.263
		c0-24.679,16.444-45.546,38.971-52.199v52.212V328.247z"/>
	<path style="fill:#E54728;" d="M428.772,232.111c22.526,6.653,38.971,27.519,38.971,52.199c0,24.757-16.535,45.662-39.165,52.263
		c0.13-2.762,0.195-5.538,0.195-8.326v-43.925L428.772,232.111L428.772,232.111z"/>
</g>
<path style="fill:#FFFFFF;" d="M342.227,81.088c-2.072,0-4.16-0.66-5.929-2.023c-23.107-17.806-50.872-27.217-80.292-27.217
	c-5.372,0-9.726-4.355-9.726-9.726s4.355-9.726,9.726-9.726c33.755,0,65.625,10.809,92.165,31.261
	c4.255,3.278,5.047,9.387,1.768,13.642C348.022,79.783,345.141,81.088,342.227,81.088z"/>
<g>
	<path style="fill:#F2F2F2;" d="M224.284,408.652c-5.372,0-9.726-4.355-9.726-9.726v-31.76c0-5.372,4.355-9.765,9.726-9.765
		c5.372,0,9.726,4.316,9.726,9.688v31.838C234.01,404.298,229.655,408.652,224.284,408.652z"/>
	<path style="fill:#F2F2F2;" d="M256.005,408.652c-5.372,0-9.726-4.355-9.726-9.726v-29.828c0-5.372,4.355-9.726,9.726-9.726
		s9.726,4.355,9.726,9.726v29.828C265.731,404.298,261.376,408.652,256.005,408.652z"/>
	<path style="fill:#F2F2F2;" d="M287.713,408.652c-5.372,0-9.726-4.355-9.726-9.726v-31.76c0-5.372,4.355-9.765,9.726-9.765
		c5.372,0,9.726,4.316,9.726,9.688v31.838C297.44,404.298,293.085,408.652,287.713,408.652z"/>
	<path style="fill:#F2F2F2;" d="M239.794,462.796c-5.372,0-9.726-4.355-9.726-9.726v-26.91c0-5.372,4.355-9.726,9.726-9.726
		c5.372,0,9.726,4.355,9.726,9.726v26.91C249.521,458.441,245.166,462.796,239.794,462.796z"/>
	<path style="fill:#F2F2F2;" d="M272.216,462.796c-5.372,0-9.726-4.355-9.726-9.726v-26.91c0-5.372,4.355-9.726,9.726-9.726
		s9.726,4.355,9.726,9.726v26.91C281.942,458.441,277.587,462.796,272.216,462.796z"/>
</g>
<path style="fill:#FFFFFF;" d="M402.55,249.217c-5.372,0-9.726-4.355-9.726-9.726v-27.234c0-5.372,4.355-9.726,9.726-9.726
	c5.372,0,9.726,4.355,9.726,9.726v27.234C412.276,244.862,407.922,249.217,402.55,249.217z"/>
<g>
	<path style="fill:#333333;" d="M147.974,237.971l5.602-2.4c3.949-1.694,8.465-0.824,11.503,2.215l33.139,33.139
		c5.829,5.829,13.486,8.743,21.143,8.743c7.657,0,15.315-2.914,21.143-8.743c3.798-3.798,3.798-9.957,0-13.754
		c-3.799-3.798-9.957-3.798-13.755,0c-4.075,4.073-10.702,4.073-14.776,0l-33.139-33.139c-8.694-8.695-21.616-11.183-32.921-6.34
		l-5.601,2.4c-4.938,2.115-7.225,7.834-5.108,12.771C137.319,237.802,143.038,240.088,147.974,237.971z"/>
	<path style="fill:#333333;" d="M292.633,279.668c7.657,0,15.315-2.914,21.143-8.743l33.139-33.139
		c3.037-3.039,7.553-3.909,11.503-2.215l5.601,2.4c4.937,2.116,10.655-0.17,12.771-5.108c2.116-4.937-0.171-10.655-5.108-12.771
		l-5.601-2.4c-11.303-4.844-24.227-2.355-32.922,6.34L300.02,257.17c-4.075,4.073-10.702,4.073-14.776,0
		c-3.799-3.798-9.957-3.798-13.755,0c-3.798,3.798-3.798,9.957,0,13.754C277.319,276.754,284.977,279.668,292.633,279.668z"/>
	<path style="fill:#333333;" d="M496.836,80.342C511,43.699,511.963,13.643,511.997,12.383c0.115-4.251-2.55-8.079-6.574-9.458
		c-4.024-1.38-8.48,0.022-10.997,3.451c-0.375,0.511-32.215,43.105-91.72,68.835c-5.373-7.247-11.287-14.119-17.659-20.49
		C350.591,20.248,304.763,1.265,256.004,1.265c-58.046,0-112.291,27.506-146.701,73.947C49.794,49.482,17.952,6.888,17.584,6.386
		C15.073,2.946,10.62,1.54,6.586,2.913c-4.031,1.375-6.698,5.212-6.583,9.468c0.034,1.262,0.997,31.317,15.162,67.959
		c13.114,33.928,33.327,62.258,59.404,83.651c-0.705,6.535-1.074,13.162-1.074,19.778V225.3
		c-23.266,9.973-38.968,33.268-38.968,59.01c0,26.009,15.993,49.47,39.631,59.285c4.581,54.333,33.283,104.082,78.762,135.265
		c0.246,0.176,0.497,0.346,0.744,0.514l0.309,0.211c0.077,0.054,0.153,0.108,0.231,0.161
		c30.143,20.275,65.344,30.991,101.798,30.991c36.46,0,71.658-10.717,101.888-31.061l0.318-0.214c0.294-0.196,0.587-0.394,0.878-0.6
		c45.472-31.186,74.169-80.933,78.748-135.264c23.638-9.815,39.632-33.276,39.632-59.285c0-25.741-15.702-49.038-38.969-59.01
		v-41.528c0-6.614-0.368-13.24-1.073-19.772C463.506,142.606,483.72,114.274,496.836,80.342z M488.109,41.984
		c-8.205,36.433-31.413,96.796-96.698,128.511c-10.414,5.059-22.51,4.398-32.362-1.768c-9.929-6.215-15.857-16.907-15.857-28.6
		v-0.504c0-15.601,10.789-29.103,26.237-32.833C425.77,93.186,465.531,63.365,488.109,41.984z M33.553,73.955
		c-4.539-11.634-7.626-22.621-9.72-32.026c22.569,21.384,62.348,51.245,118.737,64.862c15.448,3.73,26.237,17.231,26.237,32.833
		v0.504c0,11.694-5.928,22.384-15.857,28.6c-9.851,6.165-21.949,6.825-32.362,1.768C80.17,150.86,50.887,118.379,33.553,73.955z
		 M53.98,284.311c0-14.952,7.602-28.716,19.515-36.91v73.825C61.578,313.034,53.98,299.278,53.98,284.311z M458.014,284.311
		c0,14.968-7.598,28.724-19.516,36.915V247.4C450.412,255.593,458.014,269.358,458.014,284.311z M419.045,183.772v144.47
		c0,53.834-26.557,104.162-71.039,134.631c-0.07,0.048-0.139,0.096-0.207,0.145c-0.128,0.092-0.261,0.179-0.39,0.266l-0.477,0.323
		c-26.909,18.107-58.35,27.678-90.927,27.678c-32.534,0-63.944-9.547-90.845-27.614c-0.2-0.141-0.405-0.28-0.611-0.419
		c-0.112-0.077-0.227-0.152-0.338-0.232c-0.069-0.051-0.137-0.099-0.209-0.147c-44.49-30.463-71.051-80.793-71.051-134.63v-144.47
		c0-2.131,0.052-4.26,0.134-6.388c6.089,3.865,12.424,7.412,19.005,10.61c7.356,3.574,15.239,5.346,23.101,5.346
		c9.75,0,19.463-2.727,28.082-8.122c15.647-9.794,24.988-26.649,24.988-45.088v-0.504c0-24.618-16.911-45.896-41.123-51.742
		c-6.53-1.577-12.825-3.399-18.885-5.42c30.854-38.869,77.723-61.743,127.752-61.743c43.561,0,84.505,16.959,115.287,47.754
		c4.412,4.412,8.575,9.095,12.463,13.989c-6.06,2.021-12.357,3.844-18.886,5.421c-24.214,5.846-41.125,27.125-41.125,51.742v0.504
		c0,18.439,9.341,35.294,24.988,45.088c8.62,5.396,18.332,8.122,28.083,8.122c7.859,0,15.745-1.771,23.101-5.346
		c6.579-3.197,12.911-6.741,18.998-10.604C418.993,179.516,419.045,181.644,419.045,183.772z"/>
	<path style="fill:#333333;" d="M359.509,329.827c23.992-10.278,35.15-38.158,24.872-62.149c-2.115-4.938-7.833-7.225-12.77-5.111
		l-69.141,29.618c-2.372,1.015-4.242,2.932-5.2,5.326c-0.407,1.017-0.624,2.084-0.674,3.159h-0.012
		c-0.083,1.775-1.277,43.813,64.971,73.414c1.289,0.576,2.637,0.848,3.962,0.848c3.719,0,7.27-2.145,8.886-5.761
		c2.19-4.905-0.008-10.656-4.913-12.848c-16.87-7.537-28.413-15.684-36.319-23.338c2.555,0.425,5.147,0.668,7.763,0.668
		C347.143,333.651,353.451,332.422,359.509,329.827z M368.721,284.967c0.534,11.294-5.884,22.272-16.872,26.98
		c-6.847,2.932-14.425,3.023-21.339,0.257c-3.783-1.513-7.118-3.784-9.844-6.65L368.721,284.967z"/>
	<path style="fill:#333333;" d="M319.893,364.839c-10.187-9.367-25.064-8.113-42.285-6.662c-6.943,0.585-14.125,1.189-21.611,1.189
		c-7.485,0-14.667-0.604-21.611-1.189c-17.224-1.451-32.099-2.704-42.285,6.662c-6.309,5.8-9.375,14.555-9.375,26.767
		c0,40.402,32.87,73.273,73.273,73.273s73.273-32.87,73.273-73.273C329.27,379.394,326.203,370.638,319.893,364.839z
		 M281.941,438.741v-12.586c0-5.372-4.355-9.726-9.726-9.726s-9.726,4.355-9.726,9.726v18.865c-2.129,0.257-4.293,0.406-6.491,0.406
		c-2.194,0-4.352-0.148-6.478-0.403v-18.867c0-5.372-4.355-9.726-9.726-9.726c-5.372,0-9.726,4.355-9.726,9.726v12.594
		c-16.61-9.173-27.889-26.863-27.889-47.143c0-4.382,0.536-10.1,3.088-12.446c1.764-1.621,5.08-2.305,9.295-2.481v22.242
		c0,5.372,4.355,9.726,9.726,9.726c5.372,0,9.726-4.355,9.726-9.726v-21.254c3.856,0.324,7.97,0.654,12.264,0.879v20.375
		c0,5.372,4.355,9.726,9.726,9.726c5.372,0,9.726-4.355,9.726-9.726v-20.376c4.29-0.224,8.4-0.555,12.251-0.878v21.254
		c0,5.372,4.355,9.726,9.726,9.726s9.726-4.355,9.726-9.726v-22.244c4.216,0.176,7.532,0.862,9.295,2.483
		c2.552,2.346,3.088,8.064,3.088,12.446C309.817,411.88,298.543,429.566,281.941,438.741z"/>
	<path style="fill:#333333;" d="M243.353,294.524c0-5.372-4.355-9.726-9.726-9.726c-5.372,0-9.726,4.355-9.726,9.726v31.328
		c0,15.263,12.416,27.679,27.679,27.679h8.837c15.263,0,27.679-12.416,27.679-27.679v-31.328c0-5.372-4.355-9.726-9.726-9.726
		c-5.372,0-9.726,4.355-9.726,9.726v31.328c0,4.536-3.69,8.226-8.226,8.226h-8.837c-4.536,0-8.226-3.69-8.226-8.226V294.524z"/>
	<path style="fill:#333333;" d="M215.409,300.669c-0.001-0.03-0.012-0.058-0.014-0.088c-0.058-1.044-0.276-2.08-0.672-3.07
		c-0.958-2.395-2.828-4.311-5.2-5.326l-69.141-29.618c-4.937-2.114-10.655,0.172-12.77,5.111
		c-4.979,11.622-5.133,24.487-0.436,36.226c4.699,11.738,13.686,20.944,25.308,25.923c6.059,2.595,12.364,3.824,18.574,3.824
		c2.565,0,5.11-0.231,7.618-0.641c-7.902,7.67-19.41,15.822-36.173,23.311c-4.905,2.192-7.104,7.943-4.913,12.848
		c1.616,3.616,5.165,5.761,8.886,5.761c1.325,0,2.674-0.272,3.962-0.848C216.688,344.481,215.494,302.444,215.409,300.669z
		 M160.145,311.946c-10.99-4.708-17.406-15.684-16.872-26.98l48.056,20.586c-2.726,2.866-6.063,5.136-9.844,6.65
		C174.57,314.97,166.991,314.879,160.145,311.946z"/>
</g>
<g>
</g>
<g>
</g>
<g>
</g>
<g>
</g>
<g>
</g>
<g>
</g>
<g>
</g>
<g>
</g>
<g>
</g>
<g>
</g>
<g>
</g>
<g>
</g>
<g>
</g>
<g>
</g>
<g>
</g>
</svg>
